<svg width="55" height="51" viewBox="0 0 55 51" fill="none" xmlns="http://www.w3.org/2000/svg">
<path fill-rule="evenodd" clip-rule="evenodd" d="M38.0729 8.1483C38.0318 3.73033 41.5802 0.115342 45.9984 0.0743266C50.4164 0.033311 54.0311 3.58165 54.0724 7.99962C54.1134 12.4178 50.565 16.0326 46.1468 16.0736C41.7289 16.1149 38.1141 12.5665 38.0729 8.1483ZM0.0743266 8.50133C0.033311 4.08336 3.58165 0.46837 7.99986 0.427354C12.4178 0.386338 16.0326 3.93468 16.0738 8.35265C16.1149 12.7709 12.5665 16.3856 8.1483 16.4266C3.73033 16.4679 0.115586 12.9195 0.0743266 8.50133ZM26.8519 34.4032C22.4337 34.4442 18.8854 38.0592 18.9264 42.4772C18.9676 46.8954 22.5824 50.4437 27.0004 50.4025C31.4186 50.3614 34.9669 46.7467 34.9259 42.3285C34.8846 37.9105 31.2699 34.3622 26.8519 34.4032Z" fill="black"/>
</svg>
